<?xml version="1.0" encoding="utf-8"?>
<!-- Generator: Adobe Illustrator 25.0.1, SVG Export Plug-In . SVG Version: 6.00 Build 0)  -->
<svg version="1.1" id="Calque_1" xmlns="http://www.w3.org/2000/svg" xmlns:xlink="http://www.w3.org/1999/xlink" x="0px" y="0px"
	 viewBox="0 0 588.89545 142.10703" style="enable-background:new 0 0 588.89545 142.10703;" xml:space="preserve">
<style type="text/css">
	.st0{fill:#0047BA;}
	.st1{fill:url(#SVGID_1_);}
	.st2{fill:url(#SVGID_2_);}
</style>
<g>
	<path class="st0" d="M215.48537,90.95803c-3.61913,5.881-9.42458,8.8964-17.19035,8.8964
		c-12.13844,0-20.43176-8.21777-20.43176-20.20576c0-12.36443,8.21777-21.03484,19.90422-21.03484
		c11.53537,0,18.47144,7.69024,18.47144,20.50731v3.09095h-26.76476c0.52754,3.54358,0.97952,4.82529,2.41232,6.33363
		c1.58325,1.80924,3.69467,2.63832,6.55963,2.63832c3.76956,0,5.9559-1.28171,8.06732-4.6742L215.48537,90.95803z
		 M205.00508,75.20046c-0.60307-5.65436-2.71387-8.06732-7.31316-8.06732c-4.52374,0-6.93607,2.48787-7.99178,8.06732H205.00508z"/>
	<path class="st0" d="M223.62569,42.25254h11.53535v56.77282h-11.53535V42.25254z"/>
	<path class="st0" d="M256.57233,65.47435c2.71387-4.59866,6.40854-6.86053,11.38428-6.86053
		c4.90082,0,8.21841,2.11078,10.48029,6.55898c3.54358-4.59865,7.23761-6.55898,12.21399-6.55898
		c7.8407,0,12.36444,5.50391,12.36444,14.92785v25.48368h-11.53537V74.59738c0-4.67484-1.80923-7.01161-5.27728-7.01161
		c-3.92065,0-6.40854,2.9405-6.40854,7.69024v23.74934h-11.53598V74.4463c0-4.52375-1.80923-6.86053-5.35284-6.86053
		c-3.92065,0-6.33298,2.86495-6.33298,7.53915v23.90044h-11.53535V59.59399h11.53535V65.47435z"/>
	<path class="st0" d="M325.47974,92.69237c0,3.92003-3.16711,7.08716-7.08716,7.08716c-3.92065,0-7.08716-3.09159-7.08716-7.08716
		c0-3.99621,3.1665-7.08716,7.16208-7.08716C322.31262,85.60521,325.47974,88.84724,325.47974,92.69237z"/>
	<path class="st0" d="M334.29996,42.25254h11.53537v56.77282h-11.53537V42.25254z"/>
	<path class="st0" d="M391.07086,90.95803c-3.61911,5.881-9.42456,8.8964-17.19037,8.8964
		c-12.13843,0-20.43176-8.21777-20.43176-20.20576c0-12.36443,8.21777-21.03484,19.90424-21.03484
		c11.53537,0,18.47144,7.69024,18.47144,20.50731v3.09095h-26.76477c0.52756,3.54358,0.97955,4.82529,2.41232,6.33363
		c1.58325,1.80924,3.69467,2.63832,6.55963,2.63832c3.76959,0,5.9559-1.28171,8.06732-4.6742L391.07086,90.95803z
		 M380.59058,75.20046c-0.60309-5.65436-2.71387-8.06732-7.31314-8.06732c-4.52377,0-6.9361,2.48787-7.99179,8.06732H380.59058z"/>
	<path class="st0" d="M410.44501,65.54989c3.01538-4.67419,6.8605-6.93607,12.0629-6.93607
		c9.57501,0,16.05908,8.21777,16.05908,20.58286c0,12.66597-6.25745,20.65775-16.2851,20.65775
		c-5.27792,0-9.34903-2.33678-11.83688-6.93607v6.10699h-11.53537V42.25254h11.53537V65.54989z M410.14346,79.34712
		c0,7.3887,3.01538,11.53536,8.44376,11.53536c5.42902,0,8.21841-3.84512,8.21841-11.53536
		c0-7.46424-2.94049-11.76135-8.06732-11.76135C413.23441,67.58577,410.14346,71.80798,410.14346,79.34712z"/>
	<path class="st0" d="M446.17914,42.25254h11.53534v56.77282h-11.53534V42.25254z"/>
	<path class="st0" d="M489.68033,99.02535c-0.37708-0.98016-0.75418-2.7145-1.05569-4.67419
		c-2.78943,3.69403-6.40854,5.50327-11.23383,5.50327c-7.46426,0-12.28955-4.37266-12.28955-11.15827
		c0-9.04749,7.3887-13.42015,23.07138-13.57124v-1.05507c0-4.37329-1.88544-6.18253-6.33365-6.18253
		c-3.76956,0-7.16205,1.13062-11.15826,3.84512l-4.90082-7.3887c5.12683-3.99621,10.48029-5.7299,17.7179-5.7299
		c6.33298,0,10.70627,1.65815,13.42014,5.20173c2.03589,2.56341,2.8656,5.50391,2.8656,10.48029v17.86835
		c0,2.56342,0.37643,4.59929,1.05505,6.40853v0.45263H489.68033z M488.24753,82.06163
		c-8.2933,0.15045-11.83688,1.80924-11.83688,5.57882c0,2.4885,1.73431,3.99621,4.67484,3.99621
		c4.29709,0,7.16205-2.48787,7.16205-6.10699V82.06163z"/>
	<path class="st0" d="M508.97955,59.59399h11.53534v6.1819c2.63898-4.82529,6.63458-7.16206,12.21399-7.16206
		c7.91626,0,12.44,5.42837,12.44,14.92785v25.48368h-11.53534V75.05002c0-5.12747-1.88483-7.46425-5.95654-7.46425
		c-4.52313,0-7.16211,3.0154-7.16211,8.21777v23.22181h-11.53534V59.59399z"/>
	<path class="st0" d="M588.89545,89.29924c-3.39252,7.08716-9.12238,10.55519-17.1897,10.55519
		c-11.83691,0-19.52716-7.99178-19.52716-20.28131c0-12.43998,7.8407-20.9593,19.4516-20.9593
		c7.76575,0,13.26965,3.46803,16.81329,10.47965l-9.57507,4.4482c-1.88477-4.4482-3.61908-5.9559-6.86115-5.9559
		c-5.20239,0-8.06732,4.14666-8.06732,11.68581c0,7.61533,2.86493,11.6109,8.21838,11.6109
		c3.69403,0,5.88037-1.7337,7.61475-6.03145L588.89545,89.29924z"/>
</g>
<path class="st0" d="M106.17338,117.79972H34.28704c0-19.85559,16.08757-35.94881,35.94319-35.94881
	C90.0802,81.85091,106.17338,97.94413,106.17338,117.79972z"/>
<linearGradient id="SVGID_1_" gradientUnits="userSpaceOnUse" x1="66.24205" y1="135.16864" x2="35.18224" y2="15.41585">
	<stop  offset="0" style="stop-color:#0047BA"/>
	<stop  offset="0.19923" style="stop-color:#5A4B92"/>
	<stop  offset="0.56084" style="stop-color:#DF3454"/>
	<stop  offset="0.88231" style="stop-color:#F0822A"/>
</linearGradient>
<path class="st1" d="M124.8344,130.64291h-0.07232c-0.00349,0-0.00671,0.00102-0.0102,0.00102H17.35618
	c-3.25411,0-5.89207-2.63795-5.89207-5.89206v-1.21515V17.35605v-0.00698c0-0.0195,0.00594-0.03435,0.00607-0.05372
	c0.00426-0.41249,0.05192-0.81363,0.1369-1.20171c0.06561-0.32868,0.1697-0.62455,0.28361-0.91346
	c0.0226-0.05657,0.04081-0.11442,0.06496-0.17009c0.1223-0.28064,0.26294-0.54229,0.42631-0.78534
	c0.09764-0.15498,0.2078-0.29794,0.31912-0.44259c0.074-0.08756,0.13909-0.18287,0.21839-0.26475
	c0.01395-0.01614,0.03229-0.0279,0.04649-0.04391L3.64013,6.8094C1.39427,9.67788,0,13.35805,0,17.34907v106.18765
	c0,13.69164,7.98128,18.5703,15.4501,18.5703h109.3843c3.16565,0,5.73206-2.56642,5.73206-5.73206
	C130.56645,133.20932,128.00005,130.64291,124.8344,130.64291z"/>
<linearGradient id="SVGID_2_" gradientUnits="userSpaceOnUse" x1="133.11414" y1="59.29931" x2="24.14311" y2="33.37902">
	<stop  offset="0" style="stop-color:#FFD605"/>
	<stop  offset="1" style="stop-color:#F0822A"/>
</linearGradient>
<path class="st2" d="M12.9214,13.51561c1.08031-1.24653,2.65578-2.0515,4.43477-2.0515h1.21411h106.18159h0.00607
	c0.01692,0,0.02996,0.00517,0.04688,0.00529c0.41547,0.00375,0.81931,0.0523,1.20998,0.1378
	c0.327,0.06548,0.62132,0.16905,0.90907,0.28219c0.0585,0.02325,0.1183,0.0421,0.1759,0.06716
	c0.27896,0.12179,0.53919,0.26152,0.78108,0.42412c0.15704,0.09906,0.3022,0.21064,0.44879,0.32364
	c0.08562,0.07258,0.17912,0.13638,0.25945,0.214c1.24834,1.08031,2.05486,2.6572,2.05486,4.43775v1.21424v93.41968
	c0,3.16565,2.56641,5.73206,5.73206,5.73206s5.73206-2.56641,5.73206-5.73206V18.57029C142.10805,7.98231,134.64957,0,124.75794,0
	H18.57029C12.30395,0,6.9667,2.62568,3.64013,6.8094L12.9214,13.51561z"/>
</svg>
